<?xml version="1.0" standalone="no"?>
<!DOCTYPE svg PUBLIC "-//W3C//DTD SVG 1.1//EN" "http://www.w3.org/Graphics/SVG/1.1/DTD/svg11.dtd" >
<!--
2013-9-30: Created.
-->
<svg>
<metadata>
Created by iconfont
</metadata>
<defs>

<font id="iconfont" horiz-adv-x="1024" >
  <font-face
    font-family="iconfont"
    font-weight="500"
    font-stretch="normal"
    units-per-em="1024"
    ascent="896"
    descent="-128"
  />
    <missing-glyph />
    
    <glyph glyph-name="shouye" unicode="&#58887;" d="M708.85 8.78H601.09c-24.52 0-44.47 19.6-44.47 43.7V226.12c0 7.55-6.49 13.7-14.47 13.7h-61.64c-7.98 0-14.47-6.15-14.47-13.7v-173.65c0-24.1-19.95-43.7-44.47-43.7H313.82c-24.52 0-44.47 19.6-44.47 43.7V356.06c0 7.55-6.49 13.7-14.47 13.7H166.1c-12.21 0-23.05 7.23-27.6 18.43-4.47 11-1.84 23.49 6.71 31.82l334.82 326.11c17.26 16.81 45.35 16.81 62.6 0L877.45 420c8.55-8.33 11.19-20.82 6.71-31.82-4.55-11.19-15.38-18.43-27.6-18.43h-88.79c-7.98 0-14.47-6.15-14.47-13.7v-303.58c0.01-24.09-19.93-43.69-44.45-43.69zM480.51 269.83h61.64c24.52 0 44.47-19.6 44.47-43.7v-173.65c0-7.55 6.49-13.7 14.47-13.7h107.76c7.98 0 14.47 6.15 14.47 13.7V356.06c0 24.1 19.95 43.7 44.47 43.7h87.46L521.7 724.62c-5.72 5.57-15.02 5.57-20.74 0L167.42 399.76h87.46c24.52 0 44.47-19.6 44.47-43.7v-303.58c0-7.55 6.49-13.7 14.47-13.7h107.76c7.98 0 14.47 6.15 14.47 13.7V226.12c-0.01 24.1 19.94 43.71 44.46 43.71z m376.22 129.94z m-690.8 0z"  horiz-adv-x="1024" />

    
    <glyph glyph-name="yonghuguanli" unicode="&#58888;" d="M672.92 140.32c-8.28 0-15 6.72-15 15 0 80.8-65.76 146.54-146.58 146.54-80.83 0-146.58-65.74-146.58-146.54 0-8.28-6.72-15-15-15s-15 6.72-15 15c0 97.34 79.21 176.54 176.58 176.54s176.58-79.19 176.58-176.54c0-8.29-6.72-15-15-15zM511.33 301.85c-59.18 0-107.33 48.14-107.33 107.31s48.15 107.31 107.33 107.31 107.33-48.14 107.33-107.31-48.14-107.31-107.33-107.31z m0 184.62c-42.64 0-77.33-34.68-77.33-77.31s34.69-77.31 77.33-77.31 77.33 34.68 77.33 77.31-34.68 77.31-77.33 77.31zM760.63 8.78h-498.6c-23.54 0-42.7 19.15-42.7 42.69V716.08c0 23.54 19.15 42.69 42.7 42.69h498.6c23.54 0 42.7-19.15 42.7-42.69v-664.62c0-23.53-19.15-42.68-42.7-42.68z m-498.6 720c-7 0-12.7-5.69-12.7-12.69v-664.62c0-7 5.7-12.69 12.7-12.69h498.6c7 0 12.7 5.69 12.7 12.69V716.08c0 7-5.7 12.69-12.7 12.69h-498.6zM788.33 618.01h-554c-8.28 0-15 6.72-15 15s6.72 15 15 15h554c8.28 0 15-6.72 15-15s-6.71-15-15-15z"  horiz-adv-x="1024" />

    
    <glyph glyph-name="shichangguanli" unicode="&#58889;" d="M760.63 8.78h-498.6c-23.54 0-42.7 19.15-42.7 42.69V716.08c0 23.54 19.15 42.69 42.7 42.69h498.6c23.54 0 42.7-19.15 42.7-42.69v-664.62c0-23.53-19.15-42.68-42.7-42.68z m-498.6 720c-7 0-12.7-5.69-12.7-12.69v-664.62c0-7 5.7-12.69 12.7-12.69h498.6c7 0 12.7 5.69 12.7 12.69V716.08c0 7-5.7 12.69-12.7 12.69h-498.6zM677.53 562.62h-332.4c-8.28 0-15 6.72-15 15s6.72 15 15 15h332.4c8.28 0 15-6.72 15-15s-6.71-15-15-15zM289.72 188.78c-3.01 0-6.04 0.9-8.68 2.78-6.75 4.8-8.33 14.17-3.53 20.92l147.73 207.69a14.989 14.989 0 0 0 24.44 0L585.2 229.66l135.51 190.51c4.8 6.75 14.17 8.33 20.92 3.53 6.75-4.8 8.33-14.17 3.53-20.92l-147.74-207.7a14.989 14.989 0 0 0-24.44 0L437.47 385.59 301.96 195.08c-2.93-4.11-7.55-6.3-12.24-6.3z"  horiz-adv-x="1024" />

    
    <glyph glyph-name="tiaoduguanli" unicode="&#58890;" d="M870.33 203.78h-718c-8.82 0-16 7.18-16 16v478c0 8.82 7.18 16 16 16h718c8.82 0 16-7.18 16-16v-478c0-8.82-7.17-16-16-16z m-704 30h690v450h-690v-450zM511.33 53.78c-8.28 0-15 6.72-15 15v150c0 8.28 6.72 15 15 15 8.28 0 15-6.72 15-15v-150c0-8.29-6.71-15-15-15zM706.33 53.78h-390c-8.28 0-15 6.72-15 15s6.72 15 15 15h390c8.28 0 15-6.72 15-15s-6.71-15-15-15zM751.33 533.78h-480c-8.28 0-15 6.72-15 15s6.72 15 15 15h480c8.28 0 15-6.72 15-15s-6.71-15-15-15zM376.33 548.78m-30 0a30 30 0 1 1 60 0 30 30 0 1 1-60 0ZM751.33 353.78h-480c-8.28 0-15 6.72-15 15s6.72 15 15 15h480c8.28 0 15-6.72 15-15s-6.71-15-15-15zM646.33 368.78m-30 0a30 30 0 1 1 60 0 30 30 0 1 1-60 0Z"  horiz-adv-x="1024" />

    
    <glyph glyph-name="tanpanguanli" unicode="&#58891;" d="M572.44 39.77H179.98c-24.07 0-43.66 19.58-43.66 43.66V742.02c0 24.07 19.58 43.66 43.66 43.66h490.14c24.07 0 43.66-19.58 43.66-43.66v-402.99c0-8.28-6.72-15-15-15s-15 6.72-15 15V742.02c0 7.53-6.13 13.66-13.66 13.66H179.98c-7.53 0-13.66-6.13-13.66-13.66v-658.59c0-7.53 6.13-13.66 13.66-13.66h392.46c8.28 0 15-6.72 15-15s-6.71-15-15-15zM593.5 555.64H256.6c-8.28 0-15 6.72-15 15s6.72 15 15 15h336.9c8.28 0 15-6.72 15-15s-6.72-15-15-15zM593.5 429.31H256.6c-8.28 0-15 6.72-15 15s6.72 15 15 15h336.9c8.28 0 15-6.72 15-15s-6.72-15-15-15zM425.05 302.97H256.6c-8.28 0-15 6.72-15 15s6.72 15 15 15h168.45c8.28 0 15-6.72 15-15s-6.72-15-15-15zM851.29-18.12c-13.93 0-30.33 4.5-47.25 9.15-14.1 3.87-35.42 9.72-41.96 7.31-20.25-7.44-41.54-11.21-63.29-11.21-101.15 0-183.45 82.29-183.45 183.45s82.29 183.45 183.45 183.45 183.45-82.29 183.45-183.45c0-22.01-3.86-43.54-11.47-63.99-1.9-5.75 3.65-28.09 6.97-41.45 7.79-31.36 14.52-58.45 0.39-73.34-6.92-7.27-16.16-9.92-26.84-9.92z m-84.92 46.93c13.36 0 29.16-4.34 45.61-8.85 10.63-2.92 21.63-5.94 30.63-7.29 8.32-1.25 12.04-0.62 13.38-0.22 0.33 1.56 0.76 5.67-0.6 14.63-1.39 9.16-4.13 20.18-6.78 30.84-6.01 24.19-11.2 45.08-5.97 59.14 6.36 17.09 9.59 35.1 9.59 53.52 0 84.61-68.84 153.45-153.45 153.45s-153.45-68.84-153.45-153.45 68.84-153.45 153.45-153.45c18.21 0 36.02 3.15 52.94 9.37 4.42 1.62 9.34 2.31 14.65 2.31zM614.56 170.58m-21.06 0a21.06 21.06 0 1 1 42.12 0 21.06 21.06 0 1 1-42.12 0ZM709.31 170.58m-21.06 0a21.06 21.06 0 1 1 42.12 0 21.06 21.06 0 1 1-42.12 0ZM793.53 170.58m-21.06 0a21.06 21.06 0 1 1 42.12 0 21.06 21.06 0 1 1-42.12 0Z"  horiz-adv-x="1024" />

    
    <glyph glyph-name="hetongguanli" unicode="&#58892;" d="M582.09 9.23H180.65c-24.43 0-44.31 19.88-44.31 44.31V727.21c0 24.43 19.88 44.31 44.31 44.31h501.36c24.43 0 44.31-19.88 44.31-44.31V315c0-8.28-6.72-15-15-15s-15 6.72-15 15V727.21c0 7.89-6.42 14.31-14.31 14.31H180.65c-7.89 0-14.31-6.42-14.31-14.31v-673.66c0-7.89 6.42-14.31 14.31-14.31H582.1c8.28 0 15-6.72 15-15s-6.72-15.01-15.01-15.01zM603.63 536.91H259.02c-8.28 0-15 6.72-15 15s6.72 15 15 15h344.61c8.28 0 15-6.72 15-15s-6.72-15-15-15zM603.63 407.69H259.02c-8.28 0-15 6.72-15 15s6.72 15 15 15h344.61c8.28 0 15-6.72 15-15s-6.72-15-15-15zM431.33 278.46h-172.3c-8.28 0-15 6.72-15 15s6.72 15 15 15h172.3c8.28 0 15-6.72 15-15s-6.72-15-15-15zM804.15-3.97c-2.39 0-4.78 0.57-6.98 1.72l-101.72 53.48-101.72-53.48a15.012 15.012 0 0 0-15.8 1.14 15.01 15.01 0 0 0-5.97 14.67l19.43 113.27-82.29 80.22a15.016 15.016 0 0 0-3.8 15.38c1.76 5.43 6.46 9.39 12.11 10.21l113.73 16.53L682 352.21a15 15 0 0 0 26.9 0l50.86-103.05 113.73-16.53a15.01 15.01 0 0 0 12.11-10.21c1.76-5.43 0.29-11.39-3.8-15.38l-82.29-80.22 19.43-113.27c0.96-5.63-1.35-11.32-5.97-14.67a15.105 15.105 0 0 0-8.82-2.85zM551.8 207.32l66.18-64.51c3.54-3.45 5.15-8.41 4.31-13.28l-15.62-91.08 81.8 43c4.37 2.3 9.59 2.3 13.96 0l81.8-43-15.62 91.08c-0.83 4.87 0.78 9.83 4.31 13.28l66.18 64.51-91.45 13.29c-4.89 0.71-9.11 3.78-11.29 8.21l-40.9 82.87-40.9-82.87a15.01 15.01 0 0 0-11.29-8.21l-91.47-13.29z"  horiz-adv-x="1024" />

    
    <glyph glyph-name="shejiguanli" unicode="&#58893;" d="M319.54 8.68c-0.58 0-1.16 0.01-1.73 0.04l-132.72 6.98c-16.53 0.87-30 13.97-31.33 30.47l-11.02 137.19a33.094 33.094 0 0 0 9.61 26.11l10.61-10.61-10.61 10.61 532.58 532.58c12.93 12.93 33.98 12.93 46.92 0L875.8 598.1c6.27-6.27 9.72-14.6 9.72-23.46 0-8.86-3.45-17.19-9.72-23.46L343 18.39a33.219 33.219 0 0 0-23.46-9.71z m388.85 713.09c-0.81 0-1.63-0.31-2.25-0.93L173.56 188.26c-0.66-0.66-0.99-1.57-0.92-2.5l11.02-137.19a3.2 3.2 0 0 1 3-2.92l132.72-6.98c0.9-0.05 1.78 0.29 2.41 0.93l532.8 532.8c0.77 0.77 0.93 1.64 0.93 2.24 0 0.6-0.16 1.48-0.93 2.24L710.64 720.84c-0.62 0.62-1.43 0.93-2.25 0.93zM335.57 17.17c-3.84 0-7.68 1.46-10.61 4.39L165.91 180.61c-5.86 5.86-5.86 15.36 0 21.21 5.86 5.86 15.35 5.86 21.21 0l159.05-159.05c5.86-5.86 5.86-15.36 0-21.21a14.947 14.947 0 0 0-10.6-4.39zM702.19 8.69h-0.01c-4.28 0-8.3 1.67-11.32 4.7L140.92 563.33a15.902 15.902 0 0 0-4.69 11.31c0 4.28 1.67 8.3 4.69 11.32L309.16 754.2c6.24 6.24 16.39 6.24 22.63 0l549.96-549.96c3.02-3.02 4.69-7.05 4.69-11.32 0-4.28-1.67-8.3-4.7-11.32L713.51 13.38a15.883 15.883 0 0 0-11.32-4.69z m9.9 25.9l0.01-0.01-0.01 0.01zM172.03 574.65l530.16-530.16 148.44 148.44-530.16 530.16-148.44-148.44z m688.5-371.82l-0.02-0.02 0.02 0.02zM225.04 506.63c-3.84 0-7.68 1.46-10.61 4.39-5.86 5.86-5.86 15.35 0 21.21l106.03 106.03c5.86 5.86 15.36 5.86 21.21 0 5.86-5.86 5.86-15.35 0-21.21L235.65 511.02a14.995 14.995 0 0 0-10.61-4.39zM288.66 443.01c-3.84 0-7.68 1.46-10.61 4.39-5.86 5.86-5.86 15.35 0 21.21l106.03 106.03c5.86 5.86 15.36 5.86 21.21 0 5.86-5.86 5.86-15.35 0-21.21L299.27 447.4a14.995 14.995 0 0 0-10.61-4.39zM405.3 326.37c-3.84 0-7.68 1.46-10.61 4.39-5.86 5.86-5.86 15.36 0 21.21L500.72 458c5.86 5.86 15.35 5.86 21.21 0 5.86-5.86 5.86-15.35 0-21.21L415.91 330.77c-2.93-2.93-6.77-4.4-10.61-4.4zM468.92 262.75c-3.84 0-7.68 1.46-10.61 4.39-5.86 5.86-5.86 15.36 0 21.21l106.03 106.03c5.86 5.86 15.36 5.86 21.21 0 5.86-5.86 5.86-15.36 0-21.21L479.53 267.15c-2.93-2.93-6.77-4.4-10.61-4.4zM585.56 146.12c-3.84 0-7.68 1.46-10.61 4.39-5.86 5.86-5.86 15.36 0 21.21l106.03 106.03c5.86 5.86 15.36 5.86 21.21 0 5.86-5.86 5.86-15.36 0-21.21L596.16 150.51a14.93 14.93 0 0 0-10.6-4.39zM649.18 82.5c-3.84 0-7.68 1.46-10.61 4.39-5.86 5.86-5.86 15.36 0 21.21L744.6 214.14c5.86 5.86 15.36 5.86 21.21 0 5.86-5.86 5.86-15.36 0-21.21L659.78 86.89a14.93 14.93 0 0 0-10.6-4.39z"  horiz-adv-x="1024" />

    
    <glyph glyph-name="yunyingguanli" unicode="&#58894;" d="M237.89 345.34c-3.57 0-7.15 1.27-10.01 3.84-6.17 5.53-6.68 15.02-1.15 21.18l182.29 203.12c2.85 3.17 6.9 4.98 11.16 4.98s8.32-1.81 11.16-4.98L602.48 382.8l171.13 190.69c5.53 6.17 15.02 6.68 21.18 1.15 6.17-5.53 6.68-15.02 1.15-21.18l-182.3-203.14c-2.85-3.17-6.9-4.98-11.16-4.98s-8.32 1.81-11.16 4.98L420.19 541.01 249.06 350.32c-2.96-3.3-7.06-4.98-11.17-4.98zM885.33 196.9h-748c-8.82 0-16 7.18-16 16v498c0 8.82 7.18 16 16 16h748c8.82 0 16-7.18 16-16v-498c0-8.82-7.17-16-16-16z m-734 30h720v470h-720v-470zM761.33 40.65h-500c-8.28 0-15 6.72-15 15s6.72 15 15 15h500c8.28 0 15-6.72 15-15s-6.71-15-15-15z"  horiz-adv-x="1024" />

    
    <glyph glyph-name="zuzhigoujia" unicode="&#58895;" d="M511.33 462.53c-94.43 0-171.25 76.82-171.25 171.25S416.91 805.03 511.33 805.03c94.43 0 171.25-76.82 171.25-171.25s-76.82-171.25-171.25-171.25z m0 312.5c-77.89 0-141.25-63.36-141.25-141.25s63.36-141.25 141.25-141.25 141.25 63.36 141.25 141.25-63.36 141.25-141.25 141.25zM511.33-37.47c-59.96 0-108.75 48.79-108.75 108.75s48.79 108.75 108.75 108.75 108.75-48.79 108.75-108.75-48.78-108.75-108.75-108.75z m0 187.5c-43.42 0-78.75-35.33-78.75-78.75s35.33-78.75 78.75-78.75 78.75 35.33 78.75 78.75-35.32 78.75-78.75 78.75zM198.83 56.28c-42.73 0-77.5 34.77-77.5 77.5s34.77 77.5 77.5 77.5 77.5-34.77 77.5-77.5-34.76-77.5-77.5-77.5z m0 125c-26.19 0-47.5-21.31-47.5-47.5s21.31-47.5 47.5-47.5 47.5 21.31 47.5 47.5-21.31 47.5-47.5 47.5zM823.83 56.28c-42.73 0-77.5 34.77-77.5 77.5s34.77 77.5 77.5 77.5 77.5-34.77 77.5-77.5-34.76-77.5-77.5-77.5z m0 125c-26.19 0-47.5-21.31-47.5-47.5s21.31-47.5 47.5-47.5 47.5 21.31 47.5 47.5-21.31 47.5-47.5 47.5zM511.33 150.03c-8.28 0-15 6.72-15 15v312.5c0 8.28 6.72 15 15 15 8.28 0 15-6.72 15-15v-312.5c0-8.29-6.71-15-15-15zM823.83 181.28c-8.28 0-15 6.72-15 15V352.53c0 8.96-7.29 16.25-16.25 16.25h-562.5c-8.96 0-16.25-7.29-16.25-16.25v-156.25c0-8.28-6.72-15-15-15s-15 6.72-15 15V352.53c0 25.5 20.75 46.25 46.25 46.25h562.5c25.5 0 46.25-20.75 46.25-46.25v-156.25c0-8.29-6.71-15-15-15z"  horiz-adv-x="1024" />

    
    <glyph glyph-name="xiaoxi" unicode="&#58896;" d="M511.33-49.96c-72.79 0-132 59.21-132 132 0 8.28 6.72 15 15 15s15-6.72 15-15c0-56.24 45.76-102 102-102s102 45.76 102 102c0 8.28 6.72 15 15 15s15-6.72 15-15c0-72.79-59.21-132-132-132zM776.83 70.41h-531c-48.39 0-91.33 29.6-104.42 71.97-15.26 49.39 5.13 100.87 49.58 125.19 21.8 11.93 35.34 36.26 35.34 63.49V490.4c0 39.12 7.79 77.02 23.14 112.67 14.83 34.42 36.01 65.19 62.96 91.46 26.93 26.25 58.21 46.61 92.96 60.54 36.06 14.44 74.24 21.26 113.45 20.24 75.16-1.94 145.4-34.55 197.79-91.83 25.06-27.4 44.72-58.97 58.46-93.85 14.09-35.8 21.24-73.39 21.24-111.74v-146.83c0-27.24 13.54-51.57 35.34-63.5 44.45-24.32 64.84-75.8 49.58-125.19-13.08-42.36-56.03-71.96-104.42-71.96z m-265.55 675c-66.92 0-129.86-25.55-177.9-72.36-49.68-48.42-77.04-113.28-77.04-182.64v-159.34c0-38.21-19.52-72.62-50.94-89.81-31.8-17.4-46.32-54.42-35.32-90.02 9.25-29.93 40.4-50.83 75.76-50.83h531c35.36 0 66.52 20.9 75.76 50.83 11 35.6-3.52 72.62-35.32 90.02-31.42 17.19-50.94 51.61-50.94 89.81V477.9c0 143.93-111.37 263.89-248.26 267.42-2.27 0.06-4.54 0.09-6.8 0.09zM511.33 781.52m-36 0a36 36 0 1 1 72 0 36 36 0 1 1-72 0Z"  horiz-adv-x="1024" />

    
    <glyph glyph-name="bianji" unicode="&#58897;" d="M343.15 188.78c-6.5 0-12.63 2.39-17.09 6.74-5.05 4.91-7.58 11.7-7.14 19.11l5.62 94.01c0.43 7.26 3.86 14.6 9.4 20.13L754.5 749.33c5 5 11.38 8.26 17.96 9.18 8.02 1.12 15.7-1.32 21.07-6.7l85.85-85.85c10.25-10.25 9.15-27.39-2.48-39.02L456.16 206.21c-5.4-5.4-12.29-8.72-19.38-9.34l-91.3-7.99c-0.78-0.07-1.55-0.1-2.33-0.1z m11.32 117.84l-5.22-87.29 84.73 7.41c0.17 0.07 0.55 0.28 0.96 0.68l420.27 420.27-79.97 79.97-420.1-420.1c-0.39-0.4-0.59-0.77-0.67-0.94z m-0.03-0.08zM448.06 204.32c-3.84 0-7.68 1.46-10.61 4.39l-94.86 94.86c-5.86 5.86-5.86 15.36 0 21.21 5.86 5.86 15.35 5.86 21.21 0l94.86-94.86c5.86-5.86 5.86-15.36 0-21.21a14.955 14.955 0 0 0-10.6-4.39zM829.52 585.79c-3.84 0-7.68 1.46-10.61 4.39l-94.86 94.86c-5.86 5.86-5.86 15.35 0 21.21 5.86 5.86 15.36 5.86 21.21 0l94.86-94.86c5.86-5.86 5.86-15.35 0-21.21a14.913 14.913 0 0 0-10.6-4.39zM835.33 8.78h-648c-28.12 0-51 20.19-51 45v660c0 24.81 22.88 45 51 45h444c8.28 0 15-6.72 15-15s-6.72-15-15-15h-444c-11.38 0-21-6.87-21-15v-660c0-8.13 9.62-15 21-15h648c11.38 0 21 6.87 21 15v356.9c0 8.28 6.72 15 15 15s15-6.72 15-15v-356.9c0-24.82-22.88-45-51-45z"  horiz-adv-x="1024" />

    
    <glyph glyph-name="shanchu" unicode="&#58898;" d="M740.42 687.87c-8.28 0-15 6.72-15 15V735.6c0 9.77-7.95 17.73-17.73 17.73H314.97c-9.77 0-17.73-7.95-17.73-17.73v-32.73c0-8.28-6.72-15-15-15s-15 6.72-15 15V735.6c0 26.32 21.41 47.73 47.73 47.73H707.7c26.32 0 47.73-21.41 47.73-47.73v-32.73c-0.01-8.29-6.72-15-15.01-15zM871.33 638.78h-720c-8.28 0-15 6.72-15 15s6.72 15 15 15h720c8.28 0 15-6.72 15-15s-6.71-15-15-15zM769.06-15.77H253.61c-28.57 0-51.82 21.41-51.82 47.73V653.78c0 8.28 6.72 15 15 15s15-6.72 15-15v-621.82c0-9.78 9.79-17.73 21.82-17.73h515.45c12.03 0 21.82 7.95 21.82 17.73V653.78c0 8.28 6.72 15 15 15s15-6.72 15-15v-621.82c0-26.32-23.25-47.73-51.82-47.73zM380.42 180.59c-8.28 0-15 6.72-15 15V457.41c0 8.28 6.72 15 15 15s15-6.72 15-15v-261.82c0-8.28-6.71-15-15-15zM642.24 180.59c-8.28 0-15 6.72-15 15V457.41c0 8.28 6.72 15 15 15s15-6.72 15-15v-261.82c0-8.28-6.71-15-15-15zM511.33 180.59c-8.28 0-15 6.72-15 15V457.41c0 8.28 6.72 15 15 15 8.28 0 15-6.72 15-15v-261.82c0-8.28-6.71-15-15-15z"  horiz-adv-x="1024" />

    
    <glyph glyph-name="xiazai" unicode="&#58899;" d="M855.08-17.94h-687.5c-25.5 0-46.25 21.68-46.25 48.33V463.72c0 26.65 20.75 48.33 46.25 48.33h181.66c8.28 0 15-6.72 15-15s-6.72-15-15-15H167.58c-8.96 0-16.25-8.22-16.25-18.33v-433.33c0-10.11 7.29-18.33 16.25-18.33h687.5c8.96 0 16.25 8.22 16.25 18.33V463.72c0 10.11-7.29 18.33-16.25 18.33H682.46c-8.28 0-15 6.72-15 15s6.72 15 15 15h172.62c25.5 0 46.25-21.68 46.25-48.33v-433.33c0-26.65-20.74-48.33-46.25-48.33zM511.33 255.5c-8.28 0-15 6.72-15 15v500c0 8.28 6.72 15 15 15 8.28 0 15-6.72 15-15v-500c0-8.29-6.71-15-15-15zM511.33 255.5c-3.84 0-7.68 1.46-10.61 4.39l-88.39 88.39c-5.86 5.86-5.86 15.36 0 21.21 5.86 5.86 15.36 5.86 21.21 0l88.39-88.39c5.86-5.86 5.86-15.36 0-21.21a14.913 14.913 0 0 0-10.6-4.39zM511.33 255.5c-3.84 0-7.68 1.46-10.61 4.39-5.86 5.86-5.86 15.36 0 21.21l88.39 88.39c5.86 5.86 15.36 5.86 21.21 0 5.86-5.86 5.86-15.36 0-21.21l-88.39-88.39a14.913 14.913 0 0 0-10.6-4.39z"  horiz-adv-x="1024" />

    
    <glyph glyph-name="riqixuanze" unicode="&#58900;" d="M795.78-27.52H226.89c-27.88 0-50.56 23.3-50.56 51.94V681.97c0 28.64 22.68 51.94 50.56 51.94h568.89c27.88 0 50.56-23.3 50.56-51.94v-657.55c-0.01-28.64-22.69-51.94-50.56-51.94zM226.89 703.91c-11.33 0-20.56-9.84-20.56-21.94v-657.55c0-12.1 9.22-21.94 20.56-21.94h568.89c11.33 0 20.56 9.84 20.56 21.94V681.97c0 12.1-9.22 21.94-20.56 21.94H226.89zM389.43 643.17c-8.28 0-15 6.72-15 15v121.9c0 8.28 6.72 15 15 15s15-6.72 15-15v-121.9c0-8.29-6.72-15-15-15zM633.24 643.17c-8.28 0-15 6.72-15 15v121.9c0 8.28 6.72 15 15 15s15-6.72 15-15v-121.9c0-8.29-6.72-15-15-15zM191.33 420.18h640v-30h-640zM633.24 261.76H389.43c-8.28 0-15 6.72-15 15s6.72 15 15 15h243.81c8.28 0 15-6.72 15-15s-6.72-15-15-15zM633.24 94.88H389.43c-8.28 0-15 6.72-15 15s6.72 15 15 15h243.81c8.28 0 15-6.72 15-15s-6.72-15-15-15z"  horiz-adv-x="1024" />

    
    <glyph glyph-name="shangchuan" unicode="&#58901;" d="M724.28 88.78c-0.47 0-0.94 0.02-1.4 0.07H260.31c-0.23 0-0.47 0.01-0.7 0.02l-3.83 0.18c-45.1 2.11-87.17 21.29-118.46 53.99-31.39 32.81-48.68 75.89-48.68 121.31s17.29 88.51 48.69 121.32c30.75 32.13 71.9 51.19 116.11 53.85-0.01 0.66-0.01 1.32-0.01 1.98 0 63.38 24.68 122.97 69.5 167.79s104.41 69.5 167.79 69.5c106.24 0 199.93-71.09 228.51-173.13 2.1 0.06 4.22 0.09 6.32 0.09C840.49 505.75 934 412.24 934 297.3c0-114.9-93.44-208.39-208.33-208.45-0.07-0.01-0.13-0.01-0.2-0.02-0.39-0.04-0.79-0.05-1.19-0.05z m-463.61 30.06h464.84c98.46 0 178.51 80.05 178.51 178.45s-80.05 178.45-178.45 178.45c-2.36 0-4.75-0.05-7.1-0.14l-9.99-0.39c-6.94-0.27-13.23 4.31-15.06 11.06l-2.62 9.64c-24.42 90-106.69 152.86-200.08 152.86-114.3 0-207.29-92.99-207.29-207.29 0-1.28 0.01-2.55 0.03-3.82l0.22-12.18c0.15-8.12-6.19-14.88-14.3-15.25l-12.18-0.57c-77.7-3.63-138.57-67.46-138.57-145.33 0-77.85 60.85-141.69 138.54-145.33l3.5-0.16zM511.34 213.22c-8.28 0-15 6.72-15 15V477.11c0 8.28 6.72 15 15 15 8.28 0 15-6.72 15-15v-248.89c0-8.28-6.72-15-15-15zM567.78 405.66c-3.84 0-7.68 1.46-10.61 4.39l-56.45 56.45c-5.86 5.86-5.86 15.36 0 21.21 5.86 5.86 15.35 5.86 21.21 0l56.45-56.45c5.86-5.86 5.86-15.36 0-21.21a14.955 14.955 0 0 0-10.6-4.39zM454.88 405.66c-3.84 0-7.68 1.46-10.61 4.39-5.86 5.86-5.86 15.36 0 21.21l56.45 56.45c5.86 5.86 15.35 5.86 21.21 0 5.86-5.86 5.86-15.36 0-21.21l-56.45-56.45a14.955 14.955 0 0 0-10.6-4.39z"  horiz-adv-x="1024" />

    
    <glyph glyph-name="shoujizhanghao" unicode="&#58903;" d="M725.62-25.16H297.05c-27.96 0-50.71 22.75-50.71 50.71V742c0 27.96 22.75 50.71 50.71 50.71h428.57c27.96 0 50.71-22.75 50.71-50.71v-716.45c0-27.96-22.75-50.71-50.71-50.71zM297.05 762.72c-11.42 0-20.71-9.29-20.71-20.71v-716.45c0-11.42 9.29-20.71 20.71-20.71h428.57c11.42 0 20.71 9.29 20.71 20.71V742c0 11.42-9.29 20.71-20.71 20.71H297.05zM743.48 606.33H279.19c-8.28 0-15 6.72-15 15s6.72 15 15 15h464.29c8.28 0 15-6.72 15-15s-6.72-15-15-15zM543.33 682.09h-64c-8.28 0-15 6.72-15 15s6.72 15 15 15h64c8.28 0 15-6.72 15-15s-6.71-15-15-15zM743.48 212.39H279.19c-8.28 0-15 6.72-15 15s6.72 15 15 15h464.29c8.28 0 15-6.72 15-15s-6.72-15-15-15zM511.33 48.05c-34.74 0-63 28.26-63 63s28.26 63 63 63c34.74 0 63-28.26 63-63s-28.26-63-63-63z m0 96c-18.2 0-33-14.8-33-33s14.8-33 33-33 33 14.8 33 33-14.8 33-33 33z"  horiz-adv-x="1024" />

    
    <glyph glyph-name="mima" unicode="&#58904;" d="M852.39 8.78h-682.1c-29.17 0-52.9 23.73-52.9 52.89V440.62c0 29.17 23.73 52.89 52.9 52.89h682.1c29.17 0 52.89-23.73 52.89-52.89v-378.95c0-29.16-23.73-52.89-52.89-52.89zM170.28 463.51c-12.62 0-22.9-10.27-22.9-22.89v-378.95c0-12.62 10.27-22.89 22.9-22.89h682.1c12.62 0 22.89 10.27 22.89 22.89V440.62c0 12.62-10.27 22.89-22.89 22.89h-682.1zM776.6 463.51c-8.28 0-15 6.72-15 15 0 138-112.27 250.26-250.26 250.26S261.07 616.51 261.07 478.51c0-8.28-6.72-15-15-15s-15 6.72-15 15c0 74.86 29.15 145.24 82.09 198.18 52.94 52.93 123.32 82.09 198.18 82.09s145.24-29.15 198.18-82.09c52.93-52.94 82.09-123.32 82.09-198.18-0.01-8.28-6.73-15-15.01-15zM511.33 186.15c-8.28 0-15 6.72-15 15v100c0 8.28 6.72 15 15 15 8.28 0 15-6.72 15-15v-100c0-8.29-6.71-15-15-15z"  horiz-adv-x="1024" />

    
    <glyph glyph-name="yanzhengma" unicode="&#58905;" d="M511.33-31.22c-30.22 0-66.57 16.17-111.13 49.44-33.71 25.17-71.86 60.13-113.39 103.9-65.46 69-119.18 138.89-126.71 148.77-12.31 11.33-19.34 27.11-19.34 43.56V676.64c0 27.19 19.22 51.2 46.74 58.38 73.02 19.17 250.78 63.76 323.83 63.76 69.89 0 232.89-39.88 323.84-63.65 27.54-7.33 46.73-31.38 46.73-58.49v-362.19c0-16.32-7.02-32.09-19.31-43.53-7.42-9.75-61.2-79.73-126.74-148.81-41.53-43.77-79.68-78.73-113.39-103.9-44.55-33.26-80.9-49.43-111.13-49.43z m0 800c-71.51 0-260.13-48.06-316.24-62.79-14.33-3.74-24.33-15.81-24.33-29.35v-362.19c0-8.32 3.75-16.35 10.28-22.05l1.18-1.03 0.94-1.25c0.56-0.74 56.44-74.68 125.59-147.55 40.33-42.49 77.16-76.27 109.49-100.39 38.05-28.4 70.24-43.41 93.09-43.41 22.85 0 55.04 15.01 93.09 43.41 32.32 24.12 69.16 57.9 109.49 100.39 69.15 72.87 125.03 146.81 125.59 147.55l0.91 1.21 1.13 1c6.68 5.9 10.35 13.75 10.35 22.11v362.2c0 13.53-10.03 25.66-24.38 29.48-72.02 18.83-247.16 62.66-316.18 62.66zM450.8 301.27c-3.98 0-7.79 1.58-10.61 4.39l-90.35 90.35c-5.86 5.86-5.86 15.36 0 21.21 5.86 5.86 15.36 5.86 21.21 0l79.74-79.74 200.93 201.04c5.86 5.86 15.35 5.86 21.21 0.01 5.86-5.86 5.86-15.35 0.01-21.21L461.41 305.67c-2.81-2.82-6.63-4.4-10.61-4.4z"  horiz-adv-x="1024" />

    
    <glyph glyph-name="chakan" unicode="&#58906;" d="M511.33 98.78c-115.61 0-224.2 29.95-305.78 84.33-39.45 26.3-70.35 56.83-91.84 90.75-22.12 34.91-33.33 71.89-33.33 109.92s11.21 75.01 33.33 109.92c21.49 33.91 52.39 64.44 91.84 90.75 81.58 54.38 190.17 84.34 305.78 84.34 115.61 0 224.2-29.95 305.78-84.34 39.45-26.3 70.35-56.83 91.84-90.75 22.12-34.91 33.33-71.89 33.33-109.92s-11.21-75.01-33.33-109.92c-21.49-33.91-52.39-64.44-91.84-90.75-81.57-54.38-190.17-84.33-305.78-84.33z m0 540c-109.75 0-212.43-28.16-289.13-79.3-72.1-48.07-111.81-110.47-111.81-175.7 0-65.23 39.71-127.63 111.81-175.7 76.7-51.13 179.39-79.29 289.13-79.29 109.75 0 212.43 28.16 289.13 79.29 72.1 48.07 111.81 110.47 111.81 175.7 0 65.24-39.71 127.64-111.81 175.7-76.69 51.14-179.38 79.3-289.13 79.3zM511.33 244.72c-76.67 0-139.05 62.38-139.05 139.05s62.38 139.05 139.05 139.05c76.67 0 139.05-62.38 139.05-139.05s-62.37-139.05-139.05-139.05z m0 248.11c-60.13 0-109.05-48.92-109.05-109.05s48.92-109.05 109.05-109.05c60.13 0 109.05 48.92 109.05 109.05s-48.91 109.05-109.05 109.05z"  horiz-adv-x="1024" />

    
    <glyph glyph-name="yincang" unicode="&#58907;" d="M511.2 387.48c-87.61 0-170.36 19.78-239.32 57.2-33.45 18.15-62.33 39.85-85.84 64.49-24.19 25.36-42.06 53.17-53.12 82.67-2.91 7.76 1.03 16.4 8.78 19.31 7.76 2.91 16.4-1.03 19.31-8.78 19.22-51.31 63.68-97.94 125.17-131.32 64.57-35.05 142.38-53.57 225.01-53.57S671.63 436 736.2 471.05c61.5 33.38 105.95 80.01 125.17 131.32 2.91 7.76 11.55 11.69 19.31 8.78 7.76-2.91 11.69-11.55 8.78-19.31-11.05-29.5-28.92-57.31-53.12-82.67-23.51-24.64-52.39-46.34-85.84-64.49-68.93-37.42-151.69-57.2-239.3-57.2zM662.88 155.44c-6.34 0-12.22 4.04-14.27 10.4l-67.38 208.9c-2.54 7.88 1.79 16.34 9.67 18.88 7.89 2.54 16.34-1.79 18.88-9.67l67.38-208.9c2.54-7.88-1.79-16.34-9.67-18.88-1.54-0.5-3.09-0.73-4.61-0.73zM911.33 292.98c-3.38 0-6.78 1.14-9.58 3.46L745.65 426.2c-6.37 5.3-7.24 14.75-1.95 21.12 5.3 6.37 14.75 7.24 21.12 1.95l156.1-129.75c6.37-5.29 7.24-14.75 1.95-21.12a14.946 14.946 0 0 0-11.54-5.42zM359.79 155.44c-1.53 0-3.08 0.23-4.61 0.73-7.88 2.54-12.21 11-9.67 18.88l67.38 208.9c2.54 7.88 11 12.21 18.88 9.67 7.88-2.54 12.21-11 9.67-18.88l-67.38-208.9c-2.05-6.35-7.93-10.4-14.27-10.4zM111.34 292.98c-4.3 0-8.58 1.84-11.54 5.41-5.3 6.37-4.42 15.83 1.95 21.12l156.1 129.75c6.37 5.3 15.83 4.42 21.12-1.95 5.3-6.37 4.42-15.83-1.95-21.12l-156.1-129.75c-2.8-2.32-6.2-3.46-9.58-3.46z"  horiz-adv-x="1024" />

    


  </font>
</defs>
</svg>
